<?xml version="1.0" encoding="utf-8"?>
<!-- Generator: Adobe Illustrator 22.0.0, SVG Export Plug-In . SVG Version: 6.00 Build 0)  -->
<svg version="1.1" id="Calque_1" xmlns="http://www.w3.org/2000/svg" xmlns:xlink="http://www.w3.org/1999/xlink" x="0px" y="0px"
	 viewBox="0 0 1080 1920" style="enable-background:new 0 0 1080 1920;" xml:space="preserve">
<style type="text/css">
	.st0{fill:url(#SVGID_1_);}
	.st1{fill:url(#SVGID_2_);}
	.st2{opacity:0.9;}
	.st3{fill:none;}
</style>
<linearGradient id="SVGID_1_" gradientUnits="userSpaceOnUse" x1="2.9917" y1="963.2708" x2="1080" y2="963.2708" gradientTransform="matrix(1 0 0 -1 0 1922)">
	<stop  offset="0" style="stop-color:#2980B9"/>
	<stop  offset="0.5838" style="stop-color:#6DD5FA;stop-opacity:0.97"/>
	<stop  offset="1" style="stop-color:#FFFFFF;stop-opacity:0"/>
</linearGradient>
<rect x="3" y="2.8" class="st0" width="1077" height="1911.8"/>
<linearGradient id="SVGID_2_" gradientUnits="userSpaceOnUse" x1="9.094947e-13" y1="286.2461" x2="1080" y2="286.2461" gradientTransform="matrix(1 0 0 -1 0 1922)">
	<stop  offset="2.347506e-07" style="stop-color:#FFFFFF;stop-opacity:0"/>
	<stop  offset="0.4162" style="stop-color:#6DD5FA;stop-opacity:0.97"/>
	<stop  offset="1" style="stop-color:#2980B9"/>
</linearGradient>
<rect x="0" y="1348.7" class="st1" width="1080" height="574.2"/>
<g class="st2">
	
		<image style="overflow:visible;enable-background:new    ;" width="577" height="577" xlink:href="B068669D.png"  transform="matrix(1.3599 0 0 3.7261 164.8149 457.3883)">
	</image>
</g>
<g>
	<path d="M917.8,1342.3c-3.7-2.6-7.6-3-13.5-3c-13.6,0-37.5,7.8-55.9,69.7c-21.3,72.3-24.6,198.6-67.6,198.6h-9v-224.3
		c0-18.6,6.3-22.7,8.6-22.7H798c1.6,0,2.4-2.2,2.4-5.2c0-3.4-1.1-4.8-2.3-4.8h-87c-1.5,0-2.2,3.7-2.2,5.2c0,1.9,0.7,4.8,2.2,4.8
		h18.5c4.9,0,7.6,14.9,7.6,25v474.7c0,20.9-3.8,27.9-7.8,27.9h-18.8c-1.1,0-2.2,2.2-2.2,5.2c0,3.4,1.1,4.8,2.2,4.8h82
		c71.1,0,90.4-64.5,90.4-149.4c0-105.1-38.3-134.9-72.5-140.1c20.8-8.2,41.7-49.9,51.7-90.9c13.3-55.5,27.7-171.8,54-164.3
		C920.5,1355.4,919.9,1344.6,917.8,1342.3z M849.9,1754.8c0,110.7-35.1,133.8-56.7,133.8h-12.6c-5.8,0-9-8.9-9-23.1v-246.7h18.5
		C818.9,1618.8,849.9,1653.1,849.9,1754.8z M632.7,1355l-0.7,28.7c22.6,46.6,33.7,137.1,33.7,241.1c0,104.7-12.4,195.6-35.1,241.8
		l-1.8,30.9c46.4-36.5,73.8-145.3,73.8-273.1C702.8,1499.9,676.5,1394.1,632.7,1355z M475.3,1888.2h-15.8c-5.8,0-9-8.9-9-22.7
		v-481.8c0-19,6.3-22.7,8.6-22.7h16c2.2,0,2.4-3.4,2.4-6.7s-1.6-3.7-2.9-3.7h-83c-2.3,0-2.2,3-2.2,4.5c0,1.9,0.1,6,2.2,6h17.1
		c4.9,0,7.6,14.9,7.6,25v474.7c0,20.9-3.8,27.9-7.8,27.9h-17.3c-1.4,0-2.2,2.2-2.2,5.2c0,3.4,1.4,4.8,2.9,4.8v-0.4h82.7
		c1.8,0,2.6-2.6,2.6-5.2C477.3,1890.4,476.6,1888.2,475.3,1888.2z M259.6,1350.5h-92.3c-1.6,0-2.3,3-2.3,5.2c0,3,1.1,5.6,2.6,5.6
		h17.3c5.3,0,8.8,8.6,8.8,24.6v476.6c0,11.9-2.2,25.3-9.1,25.3H167c-1.4,0-2.2,2.6-2.2,5.2c0,2.6,0.3,6,2.3,6H265
		c84.2,0,117.2-133.8,117.2-275.7C382.3,1479.1,340.1,1350.5,259.6,1350.5z M267.8,1888.2h-35.2c-3.7,0-3.9-8.2-3.9-11.9l-0.1-500
		c0-11.9,2-15.6,4.9-15.6h26c63.9,0,87.2,132.6,87.2,265.7C346.4,1759.3,321.7,1888.2,267.8,1888.2z"/>
	<polyline class="st3" points="625.7,1953.8 628.9,1897.1 630.7,1866.2 631.8,1847.2 	"/>
</g>
<g>
	<path d="M167.1,836.3H265c84.2,0,117.2,120.7,117.2,248.5c0,130-42.3,245.9-122.7,245.9h-92.3c-1.6,0-2.3-2.6-2.3-4.8
		c0-2.6,1.1-4.8,2.6-4.8h17.3c5.3,0,8.8-7.8,8.8-22.4V869.1c0-10.8-2.2-22.7-9.1-22.7H167c-1.4,0-2.2-2.2-2.2-4.8
		C165,839.3,165.2,836.3,167.1,836.3 M228.3,1307.7c0,10.8,2,14.2,4.9,14.2h26c63.9,0,87.2-119.6,87.2-239.6S321.7,846,267.8,846
		h-35.2c-3.7,0-3.9,7.5-3.9,10.8C228.5,856.8,228.3,1307.7,228.3,1307.7z M392,836.3c-1.5,0-2.9,1.5-2.9,4.5c0,3,0.8,4.8,2.2,4.8
		h17.3c3.9,0,7.8,6.7,7.8,25.3v428.1c0,8.9-2.7,22.4-7.6,22.4h-17.1c-2,0-2.2,3.7-2.2,5.2c0,1.5-0.1,4.1,2.2,4.1h83
		c1.2,0,2.9-0.4,2.9-3.4s-0.3-6-2.4-6h-16c-2.3,0-8.6-3.4-8.6-20.5V866.5c0-12.3,3.3-20.5,9-20.5h15.8c1.4,0,2.2-1.9,2.2-4.5
		s-0.8-4.8-2.6-4.8H392L392,836.3z M521.8,1083.7c0-136.7,25-247.4,72.1-247.4c46.1,0,72.1,110.7,72.1,247.4s-23.7,247.4-72.1,247.4
		C546.9,1331.5,521.8,1220.5,521.8,1083.7 M593.9,1341.6c66.8,0,108.9-115.5,108.9-257.5S661,826.3,593.9,826.3
		s-108.9,115.5-108.9,257.5S528.3,1341.6,593.9,1341.6 M916.4,1327.8c-26.2,6.7-40.8-98.4-54-148.3c-9.9-36.9-31-74.5-51.7-82
		c34.1-4.8,72.5-31.7,72.5-126.3c0-76.8-19.4-134.9-90.4-134.9h-82c-1.1,0-2.2,1.5-2.2,4.5c0,3,1.1,4.8,2.2,4.8h18.8
		c3.9,0,7.8,6.7,7.8,25.3v428.1c0,8.9-2.7,22.4-7.6,22.4h-18.5c-1.5,0-2.2,3-2.2,4.5c0,1.5,0.5,4.8,2.2,4.8h87
		c1.2,0,2.3-1.5,2.3-4.5c0-3-0.8-4.8-2.4-4.8h-17.5c-2.3,0-8.6-3.7-8.6-20.5v-202.3h9c43,0,46.2,114,67.6,179.2
		c18.4,55.9,42.3,63,55.9,63c5.8,0,9.8-0.4,13.5-2.6C920.1,1336.4,920.5,1326.7,916.4,1327.8 M780.6,845.6h12.6
		c21.6,0,56.7,20.9,56.7,120.7c0,91.7-31.1,122.6-60,122.6h-18.5V866.5C771.6,853.8,774.7,845.6,780.6,845.6"/>
</g>
<image style="overflow:visible;enable-background:new    ;" width="2000" height="2500" xlink:href="B068669F.png"  transform="matrix(0.2566 0 0 0.7676 285.1982 -181)">
</image>
<image style="overflow:visible;opacity:0.5;enable-background:new    ;" width="2000" height="2500" xlink:href="B068669A.png"  transform="matrix(0.2566 0 0 0.7676 285.1982 -181)">
</image>
<image style="overflow:visible;enable-background:new    ;" width="890" height="300" xlink:href="B068669B.png"  transform="matrix(0.3861 0 0 0.5697 377.2188 57.1312)">
</image>
<image style="overflow:visible;opacity:0.5;enable-background:new    ;" width="2000" height="2500" xlink:href="B06866A5.png"  transform="matrix(0.2566 0 0 -0.8704 283.3946 3319)">
</image>
</svg>
